Coordinates
version=1
nRows=4
nColumns=107
inDegrees=yes

Units are S.I. units (second, meters, Newtons, ...)
If the header above contains a line with 'inDegrees', this indicates whether rotational values are in degrees (yes) or radians (no).

endheader
time	sternoclavicular_r2	sternoclavicular_r3	unrotscap_r3	unrotscap_r2	acromioclavicular_r2	acromioclavicular_r3	acromioclavicular_r1	unrothum_r1	unrothum_r3	unrothum_r2	elv_angle	shoulder_elv	shoulder1_r2	shoulder_rot	elbow_flexion	pro_sup	deviation	flexion	proximal_distal_r1	proximal_distal_r3	cmc_flexion	cmc_abduction	mp_flexion	ip_flexion	mcp2_flexion	mcp2_abduction	pm2_flexion	md2_flexion	mcp3_flexion	mcp3_abduction	pm3_flexion	md3_flexion	mcp4_flexion	mcp4_abduction	pm4_flexion	md4_flexion	mcp5_flexion	mcp5_abduction	pm5_flexion	md5_flexion	bicpt_tx	bicpt_ty	bicpt_tz	bicpt2_tx	bicpt2_ty	bicpt2_tz	ptpt_tx	ptpt_ty	ptpt_tz	FCUpt_tx	FCUpt_ty	FCUpt_tz	EDCpt_tx	EDCpt_ty	EDCpt_tz	APLpt_tx	APLpt_ty	APLpt_tz	FPLpt_tx	FPLpt_ty	FPLpt_tz	FPLpt2_tx	FPLpt2_ty	FPLpt2_tz	PEC1pt2_tx	PEC1pt2_ty	PEC1pt2_tz	PEC1pt3_tx	PEC1pt3_ty	PEC1pt3_tz	PEC2pt2_tx	PEC2pt2_ty	PEC2pt2_tz	PEC2pt3_tx	PEC2pt3_ty	PEC2pt3_tz	PEC3pt2_tx	PEC3pt2_ty	PEC3pt2_tz	PEC3pt3_tx	PEC3pt3_ty	PEC3pt3_tz	DELT2pt2a_tx	DELT2pt2a_ty	DELT2pt2a_tz	DELT2pt2_tx	DELT2pt2_ty	DELT2pt2_tz	LAT1pt2_tx	LAT1pt2_ty	LAT1pt2_tz	LAT1pt3_tx	LAT1pt3_ty	LAT1pt3_tz	LAT2pt2_tx	LAT2pt2_ty	LAT2pt2_tz	LAT2pt3_tx	LAT2pt3_ty	LAT2pt3_tz	LAT3pt2_tx	LAT3pt2_ty	LAT3pt2_tz	LAT3pt3_tx	LAT3pt3_ty	LAT3pt3_tz
      1.20000000	     -0.32288297	      0.13675799	     -0.13675799	      0.32288297	     -0.06537723	      0.52835581	      0.23749230	     -0.23749230	     -0.52835581	      0.06537723	     99.19675764	     76.44541412	     -1.73131003	    -24.05886058	     30.12413174	     49.80757674	      0.21268615	     -0.03832758	      0.25161960	     -0.01916379	     32.87192692	     -8.82821503	    -14.33305401	      4.54471177	     -7.78691604	     10.68662139	     20.26471956	    -13.24794425	     -3.64434215	     -0.03603765	     13.24327938	     15.13729455	      3.43397272	     -6.48559009	    -11.29068359	     20.82958496	      5.02526523	    -13.75033692	     -5.02173669	      5.05222307	      0.00089641	     -0.03105269	     -0.00485614	      0.01648270	     -0.01838337	     -0.00635562	      0.00386978	     -0.06727969	     -0.00406227	      0.00878250	     -0.18327739	     -0.00041982	     -0.00597690	      0.00179405	      0.00004995	      0.00003798	      0.00001519	      0.00007597	      0.00004862	      0.00014586	      0.00008205	     -0.00001163	     -0.00022149	     -0.00026578	      0.00250571	      0.00879123	      0.00611564	     -0.00819665	      0.01979089	     -0.01877161	      0.00250571	      0.00879123	      0.00611564	      0.00055211	      0.01834691	     -0.00964062	      0.00395847	      0.00488869	      0.01599332	      0.00000000	      0.00781582	      0.00000000	     -0.00717738	     -0.03316884	     -0.00644470	      0.01600826	     -0.00055975	     -0.00483325	     -0.00089186	      0.01494934	     -0.00611564	      0.00246324	      0.02157461	     -0.01783728	     -0.00598823	      0.01295326	     -0.00547859	     -0.01248609	      0.02735049	     -0.03062066	     -0.02344328	      0.01448217	     -0.00734726	     -0.01554391	      0.03159746	     -0.03826521
      1.23333333	     -0.32177509	      0.13628874	     -0.13628874	      0.32177509	     -0.06515291	      0.52654290	      0.23667741	     -0.23667741	     -0.52654290	      0.06515291	     99.44766351	     76.18311297	     -1.73568916	    -25.36085127	     30.19743214	     50.88496064	      0.20227476	     -0.04912540	      0.24102614	     -0.02456270	     33.14418394	     -8.59367787	    -14.69126779	      3.75237449	     -7.92022664	     10.73751570	     20.09450970	    -12.64346699	     -3.50655303	     -0.09572651	     12.95605596	     15.11430015	      3.64102714	     -6.46684986	    -11.87875924	     20.63079820	      5.01586655	    -13.73209621	     -5.44364445	      5.05503845	      0.00089884	     -0.03106109	     -0.00485749	      0.01645922	     -0.01840328	     -0.00622498	      0.00379018	     -0.06733116	     -0.00414906	      0.00889441	     -0.18325181	     -0.00041908	     -0.00610618	      0.00184132	      0.00003617	      0.00004824	      0.00001930	      0.00009648	      0.00006175	      0.00018525	      0.00010420	     -0.00001183	     -0.00021831	     -0.00026197	      0.00249712	      0.00876107	      0.00609465	     -0.00816853	      0.01972298	     -0.01870720	      0.00249712	      0.00876107	      0.00609465	      0.00055021	      0.01828396	     -0.00960755	      0.00394855	      0.00487192	      0.01596914	      0.00000000	      0.00776190	      0.00000000	     -0.00715275	     -0.03305503	     -0.00639994	      0.01667756	     -0.00060201	     -0.00537681	     -0.00088880	      0.01489804	     -0.00609465	      0.00245479	      0.02150059	     -0.01777607	     -0.00596768	      0.01290882	     -0.00545979	     -0.01244325	      0.02725665	     -0.03051559	     -0.02336284	      0.01443248	     -0.00732205	     -0.01549058	      0.03148905	     -0.03813391
      1.26666667	     -0.32219085	      0.13646484	     -0.13646484	      0.32219085	     -0.06523709	      0.52722324	      0.23698322	     -0.23698322	     -0.52722324	      0.06523709	     99.34756510	     76.28154809	     -1.73394211	    -24.82477187	     30.14788005	     50.30145331	      0.20373783	     -0.05542466	      0.24252553	     -0.02771233	     33.02352873	     -8.44862812	    -14.08441289	      2.50150637	     -7.84734275	     10.74700821	     19.72793233	    -11.92785036	     -3.38576564	     -0.14673638	     12.61399291	     15.44565559	      3.66531136	     -6.50666224	    -12.20192620	     21.19447625	      4.97005599	    -13.75188605	     -5.44724375	      5.02325503	      0.00089720	     -0.03105541	     -0.00485658	      0.01647227	     -0.01838982	     -0.00629594	      0.00383329	     -0.06730329	     -0.00410205	      0.00883375	     -0.18326570	     -0.00041959	     -0.00603616	      0.00181567	      0.00004371	      0.00005414	      0.00002165	      0.00010827	      0.00006930	      0.00020789	      0.00011694	     -0.00001174	     -0.00021974	     -0.00026369	      0.00250034	      0.00877239	      0.00610253	     -0.00817908	      0.01974846	     -0.01873137	      0.00250034	      0.00877239	      0.00610253	      0.00055092	      0.01830759	     -0.00961996	      0.00395227	      0.00487821	      0.01597823	      0.00000000	      0.00778211	      0.00000000	     -0.00716200	     -0.03309774	     -0.00641672	      0.01640474	     -0.00058454	     -0.00515011	     -0.00088995	      0.01491729	     -0.00610253	      0.00245796	      0.02152837	     -0.01779904	     -0.00597539	      0.01292550	     -0.00546685	     -0.01245933	      0.02729187	     -0.03055502	     -0.02339303	      0.01445113	     -0.00733151	     -0.01551059	      0.03152973	     -0.03818318
      1.30000000	     -0.32341820	      0.13698468	     -0.13698468	      0.32341820	     -0.06548561	      0.52923164	      0.23788598	     -0.23788598	     -0.52923164	      0.06548561	     99.07496974	     76.57213327	     -1.72918443	    -23.45425649	     30.10712015	     48.89117335	      0.21069295	     -0.04704887	      0.24960523	     -0.02352444	     33.06854083	     -8.11328765	    -15.34824010	      5.20854049	     -8.00680881	     10.70524645	     19.78958219	    -12.40027397	     -4.04949914	     -0.12043288	     13.62528467	     14.83112249	      3.25481403	     -6.52615731	    -11.64800876	     19.86994029	      4.70529332	    -13.73576307	     -5.84474768	      5.05385159	      0.00089585	     -0.03105074	     -0.00485582	      0.01650059	     -0.01837875	     -0.00646547	      0.00393749	     -0.06723591	     -0.00398845	      0.00868759	     -0.18329888	     -0.00041977	     -0.00586693	      0.00175413	      0.00006117	      0.00004628	      0.00001851	      0.00009257	      0.00005924	      0.00017773	      0.00009997	     -0.00001177	     -0.00021920	     -0.00026304	      0.00250987	      0.00880580	      0.00612578	     -0.00821024	      0.01982369	     -0.01880273	      0.00250987	      0.00880580	      0.00612578	      0.00055302	      0.01837733	     -0.00965660	      0.00396325	      0.00489680	      0.01600494	      0.00000000	      0.00784194	      0.00000000	     -0.00718928	     -0.03322383	     -0.00646638	      0.01568976	     -0.00054032	     -0.00458903	     -0.00089334	      0.01497412	     -0.00612578	      0.00246733	      0.02161038	     -0.01786685	     -0.00599816	      0.01297473	     -0.00548767	     -0.01250679	      0.02739583	     -0.03067142	     -0.02348214	      0.01450618	     -0.00735944	     -0.01556968	      0.03164984	     -0.03832864
